{"title":"Captain Phillips 2013 CAM XViD - JUSTiCE","uid":9103890,"size":2146981111,"categoryP":"video","categoryS":"movies","magnet":"?xt=urn:btih:c720427c0c9a45463c993f9c7876d280fe4e52af&amp;dn=Captain+Phillips+2013+CAM+XViD+-+JUSTiCE&amp;tr=udp%3A%2F%2Ftracker.openbittorrent.com%3A80&amp;tr=udp%3A%2F%2Fopen.demonii.com%3A1337&amp;tr=udp%3A%2F%2Ftracker.coppersurfer.tk%3A6969&amp;tr=udp%3A%2F%2Fexodus.desync.com%3A6969","seeders":1,"leechers":1,"uploader":"TeX","files":2,"time":1382819180,"description":"Captain Phillips 2013 CAM XViD - JUSTiCE\n\n\n\nSOURCE : VIDEO - Patriots VOBS THXS   AUDIO - Patriots VOBS THXS\n\n\nVideo and audio both cleaned and given justice.\nCheck sample and see.....\n\n\nWas kindly given the vobs and gotta say their pretty nice,but like all cams it has it issues.\nThere was borders,some cam movement,fair bit of glare,washed colours etc...\nAudio was decent cam audio but needed some TLC.\n\n\nWORKDONE -\n\nMade a script for the vobs and then dropped that into vdub ...here i cropped the borders,then resized to a decent AR.\nSome scenes had pixel issues so had to use a HQ smoother to blend them in.Also tweaked contrast,brightness,rgb levels...before\nadding some sharpness back.\nVideo does had HC english subs when needed,so that was a bonus :)\n\nAudio stripped and remastered in AA,before saving as mp3 and remuxing.\n\nOverall for a cam V7 A6.5 M8\n\n\nVideo\nID                                       : 0\nFormat                                   : MPEG-4 Visual\nFormat profile                           : Advanced Simple@L5\nFormat settings, BVOP                    : 2\nFormat settings, QPel                    : No\nFormat settings, GMC                     : No warppoints\nFormat settings, Matrix                  : Default (MPEG)\nMuxing mode                              : Packed bitstream\nCodec ID                                 : XVID\nCodec ID/Hint                            : XviD\nDuration                                 : 2h 7mn\nBit rate                                 : 2 107 Kbps\nWidth                                    : 720 pixels\nHeight                                   : 352 pixels\nDisplay aspect ratio                     : 2.045\nFrame rate                               : 29.970 fps\nColor space                              : YUV\nChroma subsampling                       : 4:2:0\nBit depth                                : 8 bits\nScan type                                : Progressive\nCompression mode                         : Lossy\nBits/(Pixel*Frame)                       : 0.277\nStream size                              : 1.87 GiB (94%)\nWriting library                          : XviD 64\n\nAudio\nID                                       : 1\nFormat                                   : MPEG Audio\nFormat version                           : Version 1\nFormat profile                           : Layer 3\nMode                                     : Joint stereo\nMode extension                           : MS Stereo\nCodec ID                                 : 55\nCodec ID/Hint                            : MP3\nDuration                                 : 2h 7mn\nBit rate mode                            : Constant\nBit rate                                 : 128 Kbps\nChannel(s)                               : 2 channels\nSampling rate                            : 48.0 KHz\nCompression mode                         : Lossy\nStream size                              : 116 MiB (6%)\nAlignment                                : Split accross interleaves\nInterleave, duration                     : 33 ms (1.00 video frame)\nInterleave, preload duration             : 500 ms\n\n &lt;a href=&quot;\nhttp://i.imgur.com/p0hhPF0.png&quot; rel=&quot;nofollow&quot; target=&quot;_NEW&quot;&gt;\nhttp://i.imgur.com/p0hhPF0.png&lt;/a&gt; &lt;a href=&quot;\nhttp://i.imgur.com/bLCRrAn.png&quot; rel=&quot;nofollow&quot; target=&quot;_NEW&quot;&gt;\nhttp://i.imgur.com/bLCRrAn.png&lt;/a&gt; &lt;a href=&quot;\nhttp://i.imgur.com/HxHnEy5.png&quot; rel=&quot;nofollow&quot; target=&quot;_NEW&quot;&gt;\nhttp://i.imgur.com/HxHnEy5.png&lt;/a&gt;","torrent":{"xt":"urn:btih:c720427c0c9a45463c993f9c7876d280fe4e52af","amp;dn":"Captain+Phillips+2013+CAM+XViD+-+JUSTiCE","amp;tr":["udp%3A%2F%2Ftracker.openbittorrent.com%3A80","udp%3A%2F%2Fopen.demonii.com%3A1337","udp%3A%2F%2Ftracker.coppersurfer.tk%3A6969","udp%3A%2F%2Fexodus.desync.com%3A6969"],"infoHash":"c720427c0c9a45463c993f9c7876d280fe4e52af","infoHashBuffer":{"type":"Buffer","data":[199,32,66,124,12,154,69,70,60,153,63,156,120,118,210,128,254,78,82,175]},"announce":[],"urlList":[]}}